<?xml version="1.0" standalone="no"?><!DOCTYPE svg PUBLIC "-//W3C//DTD SVG 1.1//EN" "http://www.w3.org/Graphics/SVG/1.1/DTD/svg11.dtd"><svg t="1637133112078" class="icon" viewBox="0 0 1024 1024" version="1.1" xmlns="http://www.w3.org/2000/svg" p-id="2720" xmlns:xlink="http://www.w3.org/1999/xlink" width="200" height="200"><defs><style type="text/css"></style></defs><path d="M671.885241 988.689655H96.750345A79.095172 79.095172 0 0 1 17.655172 909.594483V79.095172A79.095172 79.095172 0 0 1 96.750345 0h830.49931A79.095172 79.095172 0 0 1 1006.344828 79.095172v651.19338a212.992 212.992 0 0 0-66.136276-63.664552V79.095172a12.994207 12.994207 0 0 0-12.958897-12.958896H96.750345a12.958897 12.958897 0 0 0-12.994207 12.958896v830.499311c0 7.168 5.826207 12.958897 12.994207 12.958896h534.881103A211.826759 211.826759 0 0 0 671.885241 988.689655z" p-id="2721"></path><path d="M634.88 826.579862a170.548966 170.548966 0 0 1 170.548966-170.548965 169.383724 169.383724 0 0 1 120.549517 49.928827 170.513655 170.513655 0 1 1-291.098483 120.620138z m93.537103 6.850207a15.819034 15.819034 0 1 0 0 31.602759h150.245518a15.819034 15.819034 0 0 0 0-31.602759H728.452414z m0 57.767724a15.819034 15.819034 0 0 0 0 31.602759h150.245518a15.819034 15.819034 0 0 0 0-31.602759H728.452414z m6.07338-77.612138l31.284965-28.848552 35.486897 27.859863a10.946207 10.946207 0 0 0 14.653793 0l43.537655-43.396414-0.564965 11.475862c0.706207 5.684966 6.002759 9.780966 11.899586 9.110069a10.593103 10.593103 0 0 0 9.392552-9.110069v-36.79338a10.593103 10.593103 0 0 0-10.734345-10.416551l-40.253793-3.283862a10.487172 10.487172 0 0 0-9.427862 11.546482c0.600276 4.766897 6.532414 10.522483 11.440551 11.087449l6.002759-1.059311-32.061793 30.437518-32.520828-26.129656a10.946207 10.946207 0 0 0-14.689103 0l-40.359724 37.323035c-5.08469 2.930759-6.391172 10.699034-3.389794 15.642483 3.03669 4.943448 10.20469 10.345931 15.28938 7.415172 1.553655-0.882759 3.636966-1.624276 4.590345-3.142621l0.423724 0.282483z m-205.75338 29.060414l-1.765517-3.389793-312.567172 1.129931 0.105931-40.854069c0-146.891034 112.993103-271.819034 264.333241-288.73269h12.182069c8.651034-1.659586 17.408-1.659586 24.364138-1.659586h3.425104c48.692966-3.425103 80.93131-16.313379 100.069517-33.227034l12.182069-10.16938c48.657655-37.181793 76.482207-92.866207 76.482207-151.905103 0-106.284138-90.394483-194.100966-201.69269-194.100966-111.333517 0-201.69269 86.086621-201.69269 194.171587 0 59.074207 27.789241 114.829241 76.482207 151.905103l19.138207 15.183448-22.598621 8.403862c-132.166621 50.740966-217.405793 172.314483-217.405793 309.036138v69.243586c0 10.169379 10.487172 20.268138 22.598621 20.268138l370.72331 1.659587-6.956138-10.16938c-6.885517-10.098759-12.182069-26.624-17.408-36.793379zM363.272828 314.968276c0-77.682759 63.982345-139.758345 143.960275-139.758345 79.977931 0 143.924966 62.075586 145.584552 139.758345 0 77.647448-65.606621 139.723034-145.584552 139.723034-78.353655 0-143.960276-62.075586-143.960275-139.723034z m279.163586 320.582621h-1.059311a30.649379 30.649379 0 0 1-31.073103-30.190345c0-5.15531 3.248552-10.381241 3.248552-11.440552 3.213241-7.273931 0-15.571862-6.461793-20.762483l-32.132414-17.655172c-2.118621-1.024-4.237241-1.024-6.426483-1.024a20.762483 20.762483 0 0 0-13.912276 5.190621c-1.05931 0-13.876966 13.488552-24.61131 13.488551-8.545103 0-20.338759-9.321931-24.61131-13.488551a19.42069 19.42069 0 0 0-8.368552-4.378483 15.042207 15.042207 0 0 0-4.484414-0.812138h-1.094621c-3.213241 0-5.331862 0-7.521103 1.05931l-33.191724 17.619862h-1.059311a15.642483 15.642483 0 0 0-5.296551 19.773793c0 0.98869 2.118621 6.249931 2.11862 11.405242 0 16.631172-13.876966 30.190345-31.073103 30.190345h-1.05931c-6.426483 0-11.758345 5.15531-12.817656 13.488551-1.05931 1.024-3.213241 13.488552-3.213241 23.905104 0 10.416552 3.213241 23.905103 3.213241 24.929103 1.05931 8.297931 6.461793 13.488552 12.852966 13.488552h1.05931c17.125517 0 31.073103 13.488552 31.073104 30.155034 0 5.190621-2.189241 11.440552-2.189242 11.440552-3.177931 7.273931 0 15.607172 6.461793 20.762483l32.132414 17.655172c2.153931 1.05931 4.237241 1.05931 6.426483 1.059311 5.331862 0 10.734345-2.118621 13.912276-5.190621 3.213241-4.166621 16.066207-14.583172 24.61131-14.583172 8.580414 0 20.338759 10.416552 24.611311 14.583172a20.621241 20.621241 0 0 0 13.912275 5.15531c2.153931 0 4.272552-1.024 7.521104-3.10731l32.132414-16.595862h1.05931a15.642483 15.642483 0 0 0 5.296552-19.773793c0-2.118621-2.118621-7.309241-2.118621-11.440552 0-16.631172 13.876966-30.155034 31.037793-30.155034h1.05931c6.426483 0 11.793655-5.190621 12.852966-13.523863 1.05931-2.118621 3.177931-13.488552 3.177931-23.905103 0.070621-9.321931-3.177931-21.786483-3.177931-23.834483-1.024-8.333241-6.426483-13.488552-12.817655-13.488551z m-30.155035 50.493793h-1.765517c-18.996966 2.507034-33.650759 18.432-33.650759 36.828689 0 4.201931 0.882759 8.403862 1.765518 10.875587l0.847448 1.694896-20.691862 10.875586-0.847448-0.812138c-1.765517-1.694897-4.307862-4.166621-6.920828-5.861517-7.768276-5.896828-14.653793-8.403862-21.574621-8.403862s-13.806345 2.507034-21.609931 10.028138c-2.577655 1.694897-4.307862 4.201931-6.885517 5.896828l-0.847448 0.812137-19.773793-11.052137 0.776827-1.518345c0.847448-3.354483 1.765517-7.521103 1.765518-11.723035 0-12.464552-6.814897-23.657931-17.054897-30.508138-4.943448-3.707586-10.946207-6.320552-17.478621-7.20331h-0.847448v-0.847448c0-3.354483-0.847448-8.368552-0.847448-12.570483 0-4.166621 0-9.18069 0.847448-12.570483v-1.694896h1.765517c18.961655-2.507034 33.615448-18.432 33.615449-36.82869a35.063172 35.063172 0 0 0-1.765518-10.875586l-0.812138-1.694897 21.574621-11.758345 0.847448 0.847449c1.765517 2.507034 4.307862 4.166621 6.920828 5.861517 6.885517 5.049379 13.771034 7.521103 20.691862 7.521103 6.038069 0 13.771034-2.507034 20.691862-7.521103 2.612966-2.507034 5.190621-4.166621 6.920828-5.861517l0.847448-0.847449 20.691862 10.875587-0.847448 1.694896c-0.847448 2.542345-1.765517 6.708966-1.765518 10.875586 0 18.46731 14.653793 34.356966 33.650759 36.864h1.765517v1.694897c0 3.354483 0.847448 8.368552 0.847449 12.570483 0 4.166621 0 9.286621-0.847449 12.641103v1.694897z m-82.873379-54.731035c-22.210207 0-39.794759 17.090207-39.794759 38.629517 0 21.53931 17.584552 38.629517 39.794759 38.629518 22.174897 0 39.759448-17.090207 39.759448-38.629518 0-21.574621-17.584552-38.629517-39.759448-38.629517z m19.279448 38.311724c0 10.24-8.827586 18.820414-19.420689 18.820414-10.557793 0-19.385379-8.545103-19.38538-18.820414 0-10.24 8.827586-18.820414 19.42069-18.820413 10.557793 0 20.232828 8.580414 19.385379 18.820413z" p-id="2722"></path></svg>